<svg width="50" height="50" viewBox="0 0 50 50" fill="none" xmlns="http://www.w3.org/2000/svg">
<circle cx="25" cy="25" r="25" fill="#0CBF9F"/>
<mask id="path-2-inside-1_294_21017" fill="white">
<path fill-rule="evenodd" clip-rule="evenodd" d="M11.875 19.8864C11.875 14.719 17.8274 10.9375 25 10.9375C32.1725 10.9375 38.125 14.719 38.125 19.8864C38.125 21.8302 37.2827 23.5779 35.8499 25.002C37.3005 26.4446 38.125 28.1997 38.125 30.1136C38.125 35.281 32.1725 39.0625 25 39.0625C17.8274 39.0625 11.875 35.281 11.875 30.1136C11.875 28.2002 12.6995 26.445 14.1501 25.002C12.7173 23.5779 11.875 21.8302 11.875 19.8864ZM16.0324 26.4827C14.6773 27.5933 13.975 28.8701 13.975 30.1136C13.975 33.4183 18.8349 36.5057 25 36.5057C31.1651 36.5057 36.025 33.4183 36.025 30.1136C36.025 28.8698 35.3227 27.593 33.9677 26.4827C31.6098 27.9625 28.4457 28.8352 25 28.8352C21.5543 28.8352 18.3902 27.9625 16.0324 26.4827ZM36.025 19.8864C36.025 16.5817 31.1651 13.4943 25 13.4943L24.7832 13.4956C18.721 13.5672 13.975 16.62 13.975 19.8864C13.975 23.191 18.8349 26.2784 25 26.2784C31.1651 26.2784 36.025 23.191 36.025 19.8864Z"/>
</mask>
<path fill-rule="evenodd" clip-rule="evenodd" d="M11.875 19.8864C11.875 14.719 17.8274 10.9375 25 10.9375C32.1725 10.9375 38.125 14.719 38.125 19.8864C38.125 21.8302 37.2827 23.5779 35.8499 25.002C37.3005 26.4446 38.125 28.1997 38.125 30.1136C38.125 35.281 32.1725 39.0625 25 39.0625C17.8274 39.0625 11.875 35.281 11.875 30.1136C11.875 28.2002 12.6995 26.445 14.1501 25.002C12.7173 23.5779 11.875 21.8302 11.875 19.8864ZM16.0324 26.4827C14.6773 27.5933 13.975 28.8701 13.975 30.1136C13.975 33.4183 18.8349 36.5057 25 36.5057C31.1651 36.5057 36.025 33.4183 36.025 30.1136C36.025 28.8698 35.3227 27.593 33.9677 26.4827C31.6098 27.9625 28.4457 28.8352 25 28.8352C21.5543 28.8352 18.3902 27.9625 16.0324 26.4827ZM36.025 19.8864C36.025 16.5817 31.1651 13.4943 25 13.4943L24.7832 13.4956C18.721 13.5672 13.975 16.62 13.975 19.8864C13.975 23.191 18.8349 26.2784 25 26.2784C31.1651 26.2784 36.025 23.191 36.025 19.8864Z" fill="white"/>
<path d="M35.8499 25.002L35.7089 24.8602L35.5663 25.002L35.7089 25.1438L35.8499 25.002ZM14.1501 25.002L14.2911 25.1438L14.4337 25.002L14.2911 24.8602L14.1501 25.002ZM16.0324 26.4827L16.1387 26.3133L16.0168 26.2368L15.9056 26.328L16.0324 26.4827ZM33.9677 26.4827L34.0945 26.328L33.9832 26.2368L33.8614 26.3133L33.9677 26.4827ZM25 13.4943V13.2943L24.9988 13.2943L25 13.4943ZM24.7832 13.4956L24.782 13.2956L24.7808 13.2956L24.7832 13.4956ZM25 10.7375C21.3809 10.7375 18.0595 11.6911 15.6368 13.3078C13.2135 14.9249 11.675 17.2178 11.675 19.8864H12.075C12.075 17.3876 13.5128 15.2061 15.8588 13.6405C18.2054 12.0746 21.4465 11.1375 25 11.1375V10.7375ZM38.325 19.8864C38.325 17.2178 36.7865 14.9249 34.3632 13.3078C31.9405 11.6911 28.6191 10.7375 25 10.7375V11.1375C28.5535 11.1375 31.7946 12.0746 34.1412 13.6405C36.4872 15.2061 37.925 17.3876 37.925 19.8864H38.325ZM35.9909 25.1439C37.4546 23.689 38.325 21.8924 38.325 19.8864H37.925C37.925 21.768 37.1107 23.4668 35.7089 24.8602L35.9909 25.1439ZM35.7089 25.1438C37.1281 26.5552 37.925 28.2612 37.925 30.1136H38.325C38.325 28.1381 37.473 26.3341 35.991 24.8602L35.7089 25.1438ZM37.925 30.1136C37.925 32.6124 36.4872 34.7939 34.1412 36.3594C31.7946 37.9254 28.5535 38.8625 25 38.8625V39.2625C28.6191 39.2625 31.9405 38.3089 34.3632 36.6922C36.7865 35.0751 38.325 32.7822 38.325 30.1136H37.925ZM25 38.8625C21.4465 38.8625 18.2054 37.9254 15.8588 36.3594C13.5128 34.7939 12.075 32.6124 12.075 30.1136H11.675C11.675 32.7822 13.2135 35.0751 15.6368 36.6922C18.0595 38.3089 21.3809 39.2625 25 39.2625V38.8625ZM12.075 30.1136C12.075 28.2618 12.8719 26.5556 14.2911 25.1438L14.0091 24.8603C12.527 26.3344 11.675 28.1387 11.675 30.1136H12.075ZM11.675 19.8864C11.675 21.8924 12.5454 23.689 14.0091 25.1439L14.2911 24.8602C12.8893 23.4668 12.075 21.768 12.075 19.8864H11.675ZM15.9056 26.328C14.5213 27.4625 13.775 28.7911 13.775 30.1136H14.175C14.175 28.9492 14.8332 27.7241 16.1591 26.6374L15.9056 26.328ZM13.775 30.1136C13.775 31.8681 15.0604 33.5196 17.0731 34.7207C19.0935 35.9264 21.8861 36.7057 25 36.7057V36.3057C21.9488 36.3057 19.2289 35.5413 17.2781 34.3772C15.3195 33.2084 14.175 31.6638 14.175 30.1136H13.775ZM25 36.7057C28.1139 36.7057 30.9065 35.9264 32.9269 34.7207C34.9396 33.5196 36.225 31.8681 36.225 30.1136H35.825C35.825 31.6638 34.6805 33.2084 32.7219 34.3772C30.7711 35.5413 28.0512 36.3057 25 36.3057V36.7057ZM36.225 30.1136C36.225 28.7907 35.4786 27.4622 34.0945 26.328L33.8409 26.6374C35.1667 27.7238 35.825 28.9488 35.825 30.1136H36.225ZM25 29.0352C28.4775 29.0352 31.6797 28.1548 34.074 26.6521L33.8614 26.3133C31.54 27.7702 28.414 28.6352 25 28.6352V29.0352ZM15.926 26.6521C18.3204 28.1548 21.5226 29.0352 25 29.0352V28.6352C21.5861 28.6352 18.4601 27.7702 16.1387 26.3133L15.926 26.6521ZM25 13.6943C28.0512 13.6943 30.7711 14.4587 32.7219 15.6228C34.6805 16.7916 35.825 18.3362 35.825 19.8864H36.225C36.225 18.1319 34.9396 16.4804 32.9269 15.2793C30.9065 14.0736 28.1139 13.2943 25 13.2943V13.6943ZM24.7844 13.6956L25.0012 13.6943L24.9988 13.2943L24.782 13.2956L24.7844 13.6956ZM14.175 19.8864C14.175 18.3542 15.2925 16.8279 17.2096 15.6639C19.1193 14.5044 21.7854 13.731 24.7855 13.6956L24.7808 13.2956C21.7188 13.3318 18.9808 14.1206 17.002 15.322C15.0305 16.5189 13.775 18.1522 13.775 19.8864H14.175ZM25 26.0784C21.9488 26.0784 19.2289 25.314 17.2781 24.1499C15.3195 22.9811 14.175 21.4366 14.175 19.8864H13.775C13.775 21.6408 15.0604 23.2923 17.0731 24.4934C19.0935 25.6991 21.8861 26.4784 25 26.4784V26.0784ZM35.825 19.8864C35.825 21.4366 34.6805 22.9811 32.7219 24.1499C30.7711 25.314 28.0512 26.0784 25 26.0784V26.4784C28.1139 26.4784 30.9065 25.6991 32.9269 24.4934C34.9396 23.2923 36.225 21.6408 36.225 19.8864H35.825Z" fill="#0CBF9F" mask="url(#path-2-inside-1_294_21017)"/>
</svg>
