<svg width="54" height="54" viewBox="0 0 54 54" fill="none" xmlns="http://www.w3.org/2000/svg">
<circle cx="27" cy="27" r="27" fill="#3491FA"/>
<path d="M26.0489 10.927C26.3483 10.0057 27.6517 10.0057 27.9511 10.9271L31.0413 20.4377C31.1751 20.8497 31.5591 21.1287 31.9923 21.1287H41.9924C42.9611 21.1287 43.3639 22.3683 42.5802 22.9377L34.4899 28.8156C34.1395 29.0702 33.9928 29.5216 34.1267 29.9336L37.2169 39.4443C37.5162 40.3656 36.4617 41.1317 35.678 40.5623L27.5878 34.6844C27.2373 34.4298 26.7627 34.4298 26.4122 34.6844L18.322 40.5623C17.5383 41.1317 16.4838 40.3656 16.7831 39.4443L19.8733 29.9336C20.0072 29.5216 19.8605 29.0702 19.5101 28.8156L11.4198 22.9377C10.6361 22.3683 11.0389 21.1287 12.0076 21.1287H22.0077C22.4409 21.1287 22.8249 20.8497 22.9587 20.4377L26.0489 10.927Z" fill="white"/>
<path d="M27 13.7L29.986 22.8901H39.649L31.8315 28.5699L34.8175 37.7599L27 32.0801L19.1825 37.7599L22.1685 28.5699L14.3509 22.8901H24.014L27 13.7Z" fill="#3491FA"/>
</svg>
