<svg width="50" height="50" viewBox="0 0 50 50" fill="none" xmlns="http://www.w3.org/2000/svg">
<circle cx="25" cy="25" r="25" fill="#0CBF9F"/>
<path d="M20.7821 18.4357C19.6824 17.4143 18.415 16.472 17.0145 15.6347C14.635 14.2122 12.6914 13.5811 12.6096 13.5553C12.4603 13.5073 12.3027 13.4903 12.1465 13.5052C11.9904 13.5202 11.8389 13.5667 11.7013 13.6421C11.5636 13.7173 11.4427 13.8198 11.3459 13.9433C11.2491 14.0667 11.1784 14.2086 11.1381 14.3603C11.1162 14.4432 10.5985 16.42 10.5121 19.1909C10.4612 20.8221 10.5708 22.3978 10.8369 23.8746C11.174 25.7438 11.7653 27.4602 12.5942 28.9765C13.4231 30.4927 14.549 31.9164 15.941 33.2089C17.0407 34.2303 18.3082 35.1726 19.7087 36.0099C22.0881 37.4324 24.0317 38.0635 24.1135 38.0893C24.2288 38.1263 24.348 38.1445 24.4668 38.1445C24.6589 38.1445 24.8502 38.0966 25.0219 38.0025C25.1595 37.9273 25.2805 37.8248 25.3773 37.7013C25.4741 37.5779 25.5448 37.436 25.585 37.2843C25.607 37.2014 26.1246 35.2246 26.211 32.4537C26.2619 30.8225 26.1524 29.2468 25.8859 27.77C25.5488 25.9008 24.9575 24.1844 24.1286 22.6681C23.2997 21.1519 22.1738 19.7282 20.7821 18.4357ZM23.8998 32.3225C23.8643 33.5634 23.7313 34.6372 23.6044 35.4098C22.8858 35.0997 21.9099 34.6322 20.8458 33.9927C18.8944 32.8193 16.2311 30.8036 14.6246 27.8652C13.0177 24.9269 12.7581 21.597 12.8229 19.3209C12.8584 18.0801 12.9915 17.0059 13.118 16.2337C13.8366 16.5438 14.8124 17.0113 15.8766 17.6508C17.8279 18.8241 20.4913 20.8399 22.0978 23.7782C23.705 26.717 23.965 30.0468 23.8998 32.3225ZM33.545 30.1155C32.3018 31.4651 30.6425 32.5567 28.6132 33.3609C28.0192 33.5961 27.7284 34.2688 27.9637 34.8628C28.1438 35.3172 28.5793 35.5941 29.0398 35.5941C29.1818 35.5941 29.326 35.5679 29.4657 35.5124C31.8208 34.5793 33.766 33.291 35.2471 31.6838C36.2554 30.5891 37.1066 29.2785 37.777 27.7877C38.3054 26.6124 38.7235 25.3226 39.0194 23.9541C39.522 21.6298 39.5008 19.8725 39.4996 19.7988C39.4971 19.642 39.4628 19.4873 39.3986 19.3441C39.3345 19.201 39.2419 19.0724 39.1266 18.9661C39.0112 18.8598 38.8754 18.7781 38.7275 18.7259C38.5796 18.6737 38.4226 18.6521 38.2661 18.6625C38.1924 18.6675 36.4394 18.7898 34.164 19.4806C32.8245 19.8875 31.5728 20.4094 30.445 21.0319C29.014 21.8219 27.7774 22.7773 26.7688 23.8719C26.3356 24.3421 26.3657 25.0738 26.8355 25.507C27.3057 25.9401 28.0374 25.91 28.4705 25.4403C30.3725 23.3759 32.9517 22.2736 34.7804 21.7123C35.6768 21.4373 36.4872 21.2611 37.1147 21.15C37.0397 21.9476 36.9161 22.7399 36.7448 23.5225C36.3352 25.3905 35.4473 28.0511 33.545 30.1155Z" fill="white"/>
</svg>
