<svg width="54" height="54" viewBox="0 0 54 54" fill="none" xmlns="http://www.w3.org/2000/svg">
<circle cx="27" cy="27" r="27" fill="#3491FA"/>
<path fill-rule="evenodd" clip-rule="evenodd" d="M34.1114 21.0575L30.1194 14.2578C29.457 13.1292 28.2816 12.4524 26.973 12.447C25.659 12.447 24.4836 13.1076 23.8122 14.2308L19.9512 20.6838C19.8044 20.9297 19.7612 21.2238 19.8311 21.5016C19.9009 21.7793 20.0781 22.018 20.3238 22.1652C20.5697 22.312 20.8638 22.3552 21.1416 22.2853C21.4193 22.2155 21.658 22.0383 21.8052 21.7926L25.6662 15.3396C25.9452 14.8734 26.4168 14.607 26.9586 14.607H26.9658C27.5112 14.6088 27.9828 14.8806 28.2582 15.3504L32.1592 21.9951L31.4046 21.7548C30.8358 21.5748 30.2274 21.888 30.0474 22.4568C29.8674 23.0256 30.1806 23.634 30.7494 23.814L33.8544 24.8022C33.993 24.8472 34.137 24.8688 34.281 24.8688C34.5186 24.8688 34.758 24.8076 34.9686 24.6906C35.1369 24.5962 35.2842 24.4685 35.4015 24.3154C35.5188 24.1622 35.6036 23.9867 35.6508 23.7996L36.4518 20.6028C36.5976 20.0232 36.2448 19.4364 35.667 19.2924C35.0874 19.1466 34.5006 19.4994 34.3566 20.0772L34.1114 21.0575ZM18.3726 27.9846C18.4896 28.4832 18.9342 28.818 19.4238 28.818C19.5048 28.818 19.5876 28.809 19.6722 28.7892C19.8104 28.7571 19.9409 28.698 20.0562 28.6153C20.1715 28.5326 20.2693 28.428 20.344 28.3074C20.4188 28.1868 20.469 28.0527 20.4918 27.9126C20.5146 27.7726 20.5095 27.6295 20.4768 27.4914L19.7298 24.3198C19.6851 24.1322 19.6026 23.9557 19.4875 23.801C19.3724 23.6463 19.227 23.5166 19.0602 23.4198C18.7236 23.2272 18.3186 23.1804 17.946 23.292L14.7906 24.246C14.5178 24.3301 14.2895 24.5188 14.1554 24.7708C14.0214 25.0229 13.9927 25.3177 14.0755 25.5909C14.1583 25.8641 14.3459 26.0934 14.5973 26.2286C14.8487 26.3638 15.1435 26.3939 15.417 26.3124L16.4159 26.0103L12.6414 32.9058C12.0132 34.0542 12.0348 35.4114 12.7026 36.5364C13.3686 37.6614 14.5476 38.3328 15.8562 38.3328H23.3766C23.9724 38.3328 24.4566 37.8486 24.4566 37.2528C24.4566 36.657 23.9724 36.1728 23.3766 36.1728H15.8562C15.3108 36.1728 14.8392 35.9046 14.5602 35.4348C14.283 34.965 14.2722 34.4214 14.535 33.9426L18.1994 27.2481L18.3726 27.9846ZM38.1564 38.1456H38.1258L30.1664 38.0832L30.87 38.7846C31.293 39.2058 31.293 39.8898 30.8718 40.3128C30.7723 40.4136 30.6537 40.4935 30.523 40.5479C30.3922 40.6023 30.252 40.6301 30.1104 40.6296C29.9687 40.6299 29.8283 40.6022 29.6974 40.5482C29.5664 40.4941 29.4474 40.4148 29.3472 40.3146L27.0126 37.9872C26.8759 37.8511 26.7687 37.6883 26.6975 37.509C26.6263 37.3298 26.5926 37.1378 26.5986 36.945C26.6045 36.7523 26.6497 36.5629 26.7314 36.3884C26.8131 36.2138 26.9296 36.0578 27.0738 35.9298L29.5146 33.7716C29.7293 33.5822 30.0104 33.4857 30.2962 33.5032C30.582 33.5208 30.8492 33.6509 31.0392 33.8652C31.4352 34.3116 31.392 34.9938 30.9456 35.3898L30.3408 35.9244L38.1438 35.9856C38.6874 35.991 39.1644 35.7246 39.4452 35.2566C39.7278 34.7904 39.7404 34.2468 39.483 33.7662L35.9244 27.1422C35.7946 26.8902 35.7689 26.5972 35.853 26.3265C35.9371 26.0557 36.1242 25.8289 36.374 25.6948C36.6238 25.5607 36.9163 25.5301 37.1884 25.6096C37.4605 25.6891 37.6905 25.8723 37.8288 26.1198L41.3874 32.7438C42.0066 33.8958 41.9724 35.253 41.2974 36.3726C40.6242 37.485 39.4542 38.1456 38.1564 38.1456Z" fill="white"/>
</svg>
