<svg width="50" height="50" viewBox="0 0 50 50" fill="none" xmlns="http://www.w3.org/2000/svg">
<circle cx="25" cy="25" r="25" fill="#0CBF9F"/>
<path fill-rule="evenodd" clip-rule="evenodd" d="M14.9119 34.7044C14.914 34.2007 15.0489 33.7065 15.3029 33.2715C15.3029 33.2715 16.1337 31.8357 16.9738 30.3785H24.229V37.5645H17.7805C16.757 37.5734 15.8027 37.0256 15.2909 36.1404C15.0405 35.7034 14.9098 35.208 14.9119 34.7044ZM22.5195 35.8549V32.088V32.0878H17.961C17.316 33.2052 16.7816 34.129 16.7782 34.1348C16.5701 34.4904 16.5681 34.9323 16.7707 35.2848C16.8707 35.4577 17.0143 35.6014 17.1872 35.7015C17.3601 35.8015 17.5563 35.8545 17.756 35.8551L22.5195 35.8549ZM18.6535 11.4422C19.1112 10.6986 19.8969 10.1717 20.8301 10.1717V10.1718H29.7923C28.4799 10.1718 27.3238 10.8551 26.6675 11.9872C25.8156 13.4564 21.125 21.5879 21.125 21.5879L14.8813 17.9811C14.8813 17.9811 17.8677 12.7278 18.6535 11.4422ZM17.2083 17.3508L20.4991 19.2518C21.9166 16.7945 23.3348 14.3376 24.7538 11.8812H20.8303C20.4335 11.8812 20.1942 12.2007 20.1123 12.3337C19.6085 13.1579 18.1494 15.7029 17.2083 17.3508ZM32.225 19.4953L35.8529 13.2153L33.5287 14.5641C33.5287 14.5611 32.6195 12.9746 32.2552 12.3484C31.7403 11.4632 30.7984 10.9093 29.7745 10.9093C28.751 10.9124 27.8057 11.4694 27.3029 12.3604C27.3029 12.3604 26.469 13.7966 25.6322 15.2536L27.321 18.1769L24.9728 19.4954H32.225V19.4953ZM28.7811 13.2187L28.7917 13.2006C28.8905 13.0252 29.0339 12.879 29.2073 12.7768C29.3808 12.6747 29.5782 12.6202 29.7795 12.6189C30.1819 12.6189 30.566 12.8445 30.7773 13.208C31.0264 13.6359 31.5299 14.5129 31.8191 15.0175V16.7802L31.2384 17.7857H29.0694L27.6055 15.2517C27.9964 14.5735 28.3883 13.8958 28.7811 13.2187ZM37.3038 30.3031H30.2021L30.2081 27.6118L26.5834 33.8916L30.2081 40.1717L30.2021 37.4864H33.8206C34.6937 37.4922 35.5425 37.0468 36.0095 36.2369L40.4923 28.4756C39.8358 29.6107 38.6135 30.3123 37.3038 30.3031ZM34.5291 35.3821C34.3862 35.6296 34.1279 35.777 33.8376 35.777H29.6453L28.5572 33.8917L29.6419 32.0128H36.4752L34.5291 35.3821ZM9.69424 21.7231L12.0214 23.0598L10.2151 26.1968C9.98991 26.578 9.87009 27.0122 9.86796 27.455C9.86583 27.8978 9.98146 28.3331 10.203 28.7165L14.6844 36.475C14.0296 35.3405 14.0359 33.9299 14.6979 32.8017L18.2472 26.6543L20.5744 28.006L16.9466 21.7262L9.69424 21.7231ZM13.6301 31.2322L11.6833 27.8615C11.5139 27.5675 11.574 27.2577 11.6872 27.0661L13.7783 23.4344L15.9595 23.4352L17.0459 25.3159L13.6301 31.2322ZM39.884 25.2514L36.6597 19.6669L30.437 23.2585L34.0649 29.5413H37.4065C38.4302 29.5504 39.3843 29.0025 39.8961 28.1173C40.4076 27.2326 40.4045 26.1306 39.884 25.2514ZM38.4162 27.2617C38.3162 27.4346 38.1727 27.5782 37.9999 27.6783C37.8271 27.7784 37.631 27.8315 37.4313 27.8321L35.0517 27.832L32.7722 23.8845L36.0336 22.0021L38.4129 26.1228C38.5144 26.2953 38.5681 26.4917 38.5687 26.6918C38.5692 26.8919 38.5166 27.0886 38.4162 27.2617Z" fill="white"/>
</svg>
