<svg width="54" height="54" viewBox="0 0 54 54" fill="none" xmlns="http://www.w3.org/2000/svg">
<circle cx="27" cy="27" r="27" fill="#3491FA"/>
<path fill-rule="evenodd" clip-rule="evenodd" d="M33.9429 20.9429C33.9429 23.2748 32.815 25.3248 31.0706 26.5814C36.5377 28.3076 40.5 33.4187 40.5 39.4572C40.5 39.9714 40.05 40.4214 39.5357 40.4214C39.0214 40.4214 38.5714 39.9714 38.5714 39.4572C38.5714 33.0929 33.3643 27.8857 27 27.8857C20.6357 27.8857 15.4286 33.0929 15.4286 39.4572C15.4286 39.9714 14.9786 40.4214 14.4643 40.4214C13.95 40.4214 13.5 39.9714 13.5 39.4572C13.5 33.4116 17.4717 28.2955 22.9488 26.5753C21.2048 25.3182 20.0571 23.2711 20.0571 20.9429C20.0571 17.15 23.1428 14 27 14C30.8571 14 33.9429 17.0857 33.9429 20.9429ZM32.0143 21.0071C32.0143 23.5381 30.1281 25.6379 27.6881 25.9744C27.4601 25.9629 27.2308 25.9571 27 25.9571C26.7693 25.9571 26.5399 25.9629 26.3119 25.9744C23.8718 25.6379 21.9857 23.5381 21.9857 21.0071C21.9857 18.2429 24.2357 15.9929 27 15.9929C29.7643 15.9929 32.0143 18.2429 32.0143 21.0071ZM35.55 26.6C35.0357 26.6 34.5857 26.15 34.5857 25.6357C34.5857 25.6251 34.5859 25.6144 34.5863 25.6038C34.5859 25.5931 34.5857 25.5823 34.5857 25.5714C34.5857 25.0571 35.0357 24.6071 35.55 24.6071C35.7332 24.6071 35.9153 24.6124 36.096 24.6228C37.5182 24.3667 38.6357 23.1286 38.6357 21.5857C38.6357 19.9143 37.2857 18.5 35.55 18.5C35.0357 18.5 34.5857 18.05 34.5857 17.5357C34.5857 17.0214 35.0357 16.5714 35.55 16.5714C38.3143 16.5714 40.5643 18.8214 40.5643 21.5857C40.5643 23.0293 39.9506 24.3327 38.9705 25.2486C42.4941 26.6232 45 30.0554 45 34.0572C45 34.6357 44.6143 35.0214 44.0357 35.0214C43.5214 35.0214 43.0714 34.5714 43.0714 34.0572C43.0714 30.15 40.0567 26.8806 36.1745 26.5613C35.9699 26.5868 35.7614 26.6 35.55 26.6ZM15.0295 25.2486C14.0494 24.3327 13.4357 23.0293 13.4357 21.5857C13.4357 18.8214 15.6857 16.5714 18.45 16.5714C18.9643 16.5714 19.4143 17.0214 19.4143 17.5357C19.4143 18.05 18.9643 18.5 18.45 18.5C16.7786 18.5 15.3643 19.85 15.3643 21.5857C15.3643 23.0759 16.4373 24.3616 17.9001 24.623C18.0821 24.6125 18.2654 24.6071 18.45 24.6071C18.9643 24.6071 19.4143 25.0571 19.4143 25.5714C19.4143 25.5822 19.4141 25.5929 19.4137 25.6036C19.4141 25.6143 19.4143 25.625 19.4143 25.6357C19.4143 26.15 18.9643 26.6 18.45 26.6C18.239 26.6 18.031 26.5869 17.8267 26.5614C13.9972 26.8787 10.9286 30.0916 10.9286 34.0572C10.9286 34.6357 10.5429 35.0214 9.96429 35.0214C9.45 35.0214 9 34.5714 9 34.0572C9 30.0554 11.5059 26.6232 15.0295 25.2486Z" fill="white"/>
<circle cx="27" cy="21" r="5" fill="#3491FA"/>
</svg>
