<svg width="50" height="50" viewBox="0 0 50 50" fill="none" xmlns="http://www.w3.org/2000/svg">
<circle cx="25" cy="25" r="25" fill="#0CBF9F"/>
<path fill-rule="evenodd" clip-rule="evenodd" d="M12.8192 24.6L24.3659 37.4293C24.7312 37.8347 25.2688 37.8347 25.6336 37.4293L37.1803 24.6C37.6757 24.0496 37.8235 22.96 37.4917 22.2971L34.6 16.5131C34.2533 15.8203 33.2432 15.1947 32.4715 15.1947H17.5259C16.7536 15.1947 15.7445 15.8187 15.3979 16.5131L12.5077 22.2965C12.1765 22.9589 12.3243 24.0491 12.8192 24.6ZM27.2197 38.8565C26.0069 40.2037 23.9925 40.2032 22.7803 38.8565L11.2336 26.0267C10.1515 24.8245 9.87627 22.7899 10.5989 21.3429L13.4896 15.5595C14.1973 14.1424 15.9445 13.0613 17.5253 13.0613H32.4715C34.0517 13.0613 35.8 14.144 36.5083 15.5589L39.4 21.3429C40.1237 22.7904 39.848 24.8245 38.7664 26.0267L27.2197 38.8565ZM28.2 18.5333H21.8C21.0889 18.5333 20.7333 18.8889 20.7333 19.6C20.7333 20.3111 21.0889 20.6667 21.8 20.6667H28.2C28.9111 20.6667 29.2667 20.3111 29.2667 19.6C29.2667 18.8889 28.9111 18.5333 28.2 18.5333Z" fill="white"/>
<path d="M24.3659 37.4293L24.2544 37.5297L24.2544 37.5298L24.3659 37.4293ZM12.8192 24.6L12.7076 24.7002L12.7077 24.7004L12.8192 24.6ZM25.6336 37.4293L25.5221 37.329L25.5221 37.329L25.6336 37.4293ZM37.1803 24.6L37.0688 24.4996L37.0688 24.4997L37.1803 24.6ZM37.4917 22.2971L37.3576 22.3641L37.3576 22.3642L37.4917 22.2971ZM34.6 16.5131L34.7342 16.446L34.7341 16.446L34.6 16.5131ZM15.3979 16.5131L15.532 16.5801L15.5321 16.5801L15.3979 16.5131ZM12.5077 22.2965L12.6419 22.3636L12.6419 22.3636L12.5077 22.2965ZM22.7803 38.8565L22.6688 38.9569L22.6688 38.9569L22.7803 38.8565ZM27.2197 38.8565L27.3312 38.9569L27.3312 38.9569L27.2197 38.8565ZM11.2336 26.0267L11.3451 25.9263L11.3451 25.9263L11.2336 26.0267ZM10.5989 21.3429L10.4648 21.2759L10.4647 21.2759L10.5989 21.3429ZM13.4896 15.5595L13.6238 15.6265L13.6238 15.6265L13.4896 15.5595ZM36.5083 15.5589L36.6424 15.4919L36.6424 15.4918L36.5083 15.5589ZM39.4 21.3429L39.2658 21.41L39.2658 21.41L39.4 21.3429ZM38.7664 26.0267L38.8779 26.127L38.8779 26.127L38.7664 26.0267ZM24.4774 37.329L12.9307 24.4997L12.7077 24.7004L24.2544 37.5297L24.4774 37.329ZM25.5221 37.329C25.3649 37.5037 25.1784 37.5833 24.9999 37.5833C24.8214 37.5833 24.6348 37.5037 24.4773 37.3289L24.2544 37.5298C24.4623 37.7603 24.7271 37.8833 24.9999 37.8833C25.2728 37.8833 25.5375 37.7603 25.7451 37.5297L25.5221 37.329ZM37.0688 24.4997L25.5221 37.329L25.7451 37.5297L37.2918 24.7004L37.0688 24.4997ZM37.3576 22.3642C37.5063 22.6613 37.5522 23.067 37.4976 23.4706C37.4429 23.8742 37.2908 24.253 37.0688 24.4996L37.2918 24.7004C37.5652 24.3966 37.7347 23.9554 37.7948 23.5109C37.855 23.0663 37.8089 22.5958 37.6259 22.2299L37.3576 22.3642ZM34.4658 16.5802L37.3576 22.3641L37.6259 22.23L34.7342 16.446L34.4658 16.5802ZM32.4715 15.3447C32.821 15.3447 33.2391 15.4881 33.6162 15.7216C33.9931 15.9551 34.3087 16.2661 34.4659 16.5802L34.7341 16.446C34.5446 16.0672 34.1818 15.7191 33.7741 15.4666C33.3665 15.2141 32.8937 15.0447 32.4715 15.0447V15.3447ZM17.5259 15.3447H32.4715V15.0447H17.5259V15.3447ZM15.5321 16.5801C15.6893 16.2652 16.0045 15.9542 16.3812 15.721C16.758 15.4877 17.176 15.3447 17.5259 15.3447V15.0447C17.1034 15.0447 16.6308 15.2136 16.2233 15.4659C15.8157 15.7183 15.4531 16.0665 15.2637 16.4461L15.5321 16.5801ZM12.6419 22.3636L15.532 16.5801L15.2637 16.446L12.3736 22.2295L12.6419 22.3636ZM12.9308 24.4998C12.709 24.2528 12.5569 23.8737 12.5023 23.47C12.4477 23.0662 12.4935 22.6604 12.6419 22.3636L12.3736 22.2295C12.1908 22.595 12.1449 23.0656 12.205 23.5102C12.2652 23.9548 12.4345 24.3962 12.7076 24.7002L12.9308 24.4998ZM22.6688 38.9569C23.9406 40.3697 26.0588 40.3703 27.3312 38.9569L27.1083 38.7562C25.9551 40.0372 24.0444 40.0367 22.8917 38.7562L22.6688 38.9569ZM11.1221 26.127L22.6688 38.9569L22.8918 38.7562L11.3451 25.9263L11.1221 26.127ZM10.4647 21.2759C9.71455 22.778 9.99869 24.879 11.1221 26.127L11.3451 25.9263C10.3042 24.7701 10.038 22.8018 10.7331 21.41L10.4647 21.2759ZM13.3554 15.4924L10.4648 21.2759L10.7331 21.41L13.6238 15.6265L13.3554 15.4924ZM17.5253 12.9113C15.8876 12.9113 14.0885 14.0246 13.3554 15.4925L13.6238 15.6265C14.3062 14.2602 16.0015 13.2113 17.5253 13.2113V12.9113ZM32.4715 12.9113H17.5253V13.2113H32.4715V12.9113ZM36.6424 15.4918C35.9088 14.0263 34.1087 12.9113 32.4715 12.9113V13.2113C33.9947 13.2113 35.6912 14.2618 36.3741 15.6261L36.6424 15.4918ZM39.5342 21.2759L36.6424 15.4919L36.3741 15.626L39.2658 21.41L39.5342 21.2759ZM38.8779 26.127C40.0007 24.879 40.2855 22.7785 39.5342 21.2759L39.2658 21.41C39.962 22.8023 39.6953 24.77 38.6549 25.9263L38.8779 26.127ZM27.3312 38.9569L38.8779 26.127L38.6549 25.9263L27.1082 38.7562L27.3312 38.9569ZM21.8 18.6833H28.2V18.3833H21.8V18.6833ZM20.8833 19.6C20.8833 19.2676 20.9663 19.0458 21.1061 18.9061C21.2458 18.7663 21.4676 18.6833 21.8 18.6833V18.3833C21.4213 18.3833 21.1098 18.4781 20.8939 18.6939C20.6781 18.9098 20.5833 19.2213 20.5833 19.6H20.8833ZM21.8 20.5167C21.4676 20.5167 21.2458 20.4337 21.1061 20.2939C20.9663 20.1542 20.8833 19.9324 20.8833 19.6H20.5833C20.5833 19.9787 20.6781 20.2902 20.8939 20.5061C21.1098 20.7219 21.4213 20.8167 21.8 20.8167V20.5167ZM28.2 20.5167H21.8V20.8167H28.2V20.5167ZM29.1167 19.6C29.1167 19.9324 29.0337 20.1542 28.8939 20.2939C28.7542 20.4337 28.5324 20.5167 28.2 20.5167V20.8167C28.5787 20.8167 28.8902 20.7219 29.1061 20.5061C29.3219 20.2902 29.4167 19.9787 29.4167 19.6H29.1167ZM28.2 18.6833C28.5324 18.6833 28.7542 18.7663 28.8939 18.9061C29.0337 19.0458 29.1167 19.2676 29.1167 19.6H29.4167C29.4167 19.2213 29.3219 18.9098 29.1061 18.6939C28.8902 18.4781 28.5787 18.3833 28.2 18.3833V18.6833Z" fill="white"/>
</svg>
