<svg width="100" height="100" viewBox="0 0 100 100" fill="none" xmlns="http://www.w3.org/2000/svg">
<path d="M49.9998 22.4162C28.4398 22.4162 11.319 39.5373 11.319 61.0968C11.3189 82.6567 28.4398 99.7778 49.9998 99.7778C71.5598 99.7778 88.6802 82.6567 88.6802 61.0967C88.6802 39.5372 71.5598 22.4161 49.9998 22.4161V22.4162ZM69.6573 57.2924L62.0476 64.9016L63.9509 75.6815C64.5847 79.4863 62.6823 80.7549 59.512 78.8518L49.9998 73.7791L40.4883 78.8518C37.3172 80.7549 35.4157 78.8518 36.0494 75.6815L37.9512 64.9016L30.343 57.2924C27.8058 54.7561 28.4397 52.2191 32.2447 51.5852L42.3901 50.3173L46.8288 40.8059C48.098 37.6348 50.6343 37.6348 52.5361 40.8059L56.975 50.3173L67.755 51.5852C71.5598 52.8537 72.8283 54.7561 69.6573 57.2924ZM88.6802 4.66111C89.3149 4.02733 89.3149 3.39278 89.3149 3.39278C89.3149 2.12478 88.0463 0.85711 86.7786 0.85711H62.6822C61.4138 0.85711 60.1459 1.491 60.1459 2.75878L52.5361 16.7091C52.5361 16.7091 68.3896 17.3436 77.901 26.8551L88.6802 4.66111ZM47.4634 16.709L39.8544 2.12467C39.8544 0.856888 38.5859 0.222221 37.3173 0.222221H13.8556C11.953 0.222221 10.685 1.49078 10.685 2.75855C10.685 3.39255 10.685 4.02711 11.3189 4.02711L22.0992 26.2209C31.6107 17.9773 47.4633 16.709 47.4633 16.709H47.4634Z" fill="#3491FA" fill-opacity="0.04"/>
</svg>
