<svg width="54" height="54" viewBox="0 0 54 54" fill="none" xmlns="http://www.w3.org/2000/svg">
<circle cx="27" cy="27" r="27" fill="#3491FA"/>
<path fill-rule="evenodd" clip-rule="evenodd" d="M22.3175 18.5118C23.0812 20.3455 24.8921 21.6381 26.9993 21.6381C29.1062 21.6381 30.9169 20.3462 31.681 18.513C35.5728 20.3218 38.126 24.2657 38.126 28.6142C38.126 28.9461 38.111 29.2788 38.0812 29.61C36.1138 29.3581 34.0934 30.2803 33.0418 32.1028C31.9898 33.9255 32.2015 36.1362 33.4029 37.7138C31.5443 39.0296 29.3054 39.7452 27.0013 39.7452C24.7001 39.7452 22.4604 39.0296 20.5968 37.7141C21.7985 36.1364 22.0103 33.9254 20.9582 32.1028C20.2809 30.9302 19.1881 30.0911 17.88 29.7406C17.2289 29.5667 16.5637 29.5235 15.9153 29.6075C15.8856 29.2771 15.8707 28.9453 15.8707 28.6142C15.8707 24.2629 18.4245 20.3185 22.3175 18.5118ZM21.9315 16.6756C21.9308 16.6401 21.9304 16.6046 21.9304 16.5689C21.9304 13.774 24.2044 11.5 26.9993 11.5C29.7942 11.5 32.0686 13.7737 32.0686 16.5689C32.0686 16.605 32.0682 16.641 32.0674 16.677C36.8173 18.6984 39.9607 23.4075 39.9607 28.6146C39.9607 29.1403 39.9283 29.6678 39.8641 30.1904C39.8983 30.2091 39.9324 30.2282 39.9663 30.2478C42.3868 31.6448 43.2195 34.7509 41.8219 37.1723C40.884 38.7966 39.1765 39.7056 37.4237 39.7056C36.5643 39.7056 35.6936 39.4869 34.8974 39.0273C34.8633 39.0076 34.8296 38.9876 34.7961 38.9673C32.5657 40.6569 29.8253 41.5799 27.0013 41.5799C24.1807 41.5799 21.4387 40.6569 19.2029 38.9679C19.1698 38.988 19.1363 39.0078 19.1026 39.0273C18.3061 39.4869 17.4354 39.7056 16.576 39.7056C14.8232 39.7056 13.1157 38.7966 12.1781 37.172C10.7805 34.7509 11.6132 31.6444 14.0337 30.2475C14.0665 30.2285 14.0994 30.21 14.1324 30.1918C14.0681 29.6686 14.0358 29.1418 14.0357 28.6142C14.0357 23.4035 17.1801 18.6939 21.9315 16.6756ZM23.7654 16.5686C23.7654 14.7852 25.216 13.3346 26.9993 13.3346C28.7827 13.3346 30.2339 14.7852 30.2339 16.5686C30.2339 18.3519 28.7827 19.8032 26.9993 19.8032C25.216 19.8032 23.7654 18.3519 23.7654 16.5686ZM14.9507 31.8365C15.4493 31.5486 16.0018 31.4018 16.5626 31.4018C16.847 31.402 17.1301 31.4395 17.4047 31.5133C18.2392 31.7366 18.9368 32.2719 19.3692 33.0201C20.2609 34.5648 19.7293 36.5469 18.1849 37.4386C17.436 37.871 16.564 37.9851 15.7309 37.7618C14.8958 37.5385 14.1988 37.0033 13.7664 36.255C12.8747 34.7103 13.4063 32.7282 14.9507 31.8365ZM36.5946 31.5136C36.8692 31.4395 37.1523 31.4019 37.4367 31.4018C37.9969 31.4018 38.5501 31.5486 39.0487 31.8368C40.5931 32.7285 41.1246 34.711 40.2329 36.2554C39.8002 37.0036 39.1032 37.5388 38.2685 37.7621C37.4364 37.9855 36.564 37.8713 35.8144 37.4389C34.27 36.5473 33.7385 34.5648 34.6301 33.0204C35.0628 32.2722 35.7598 31.737 36.5946 31.5136Z" fill="white"/>
<path d="M22.3175 18.5118L22.5483 18.4157L22.4482 18.1755L22.2122 18.285L22.3175 18.5118ZM31.681 18.513L31.7864 18.2863L31.5504 18.1766L31.4502 18.4168L31.681 18.513ZM38.0812 29.61L38.0494 29.858L38.3069 29.891L38.3302 29.6325L38.0812 29.61ZM33.0418 32.1028L33.2583 32.2278L33.2583 32.2277L33.0418 32.1028ZM33.4029 37.7138L33.5474 37.9179L33.7586 37.7683L33.6018 37.5623L33.4029 37.7138ZM20.5968 37.7141L20.398 37.5626L20.2409 37.7688L20.4527 37.9183L20.5968 37.7141ZM20.9582 32.1028L21.1747 31.9778L21.1747 31.9777L20.9582 32.1028ZM17.88 29.7406L17.9447 29.4991L17.9445 29.499L17.88 29.7406ZM15.9153 29.6075L15.6663 29.6299L15.6896 29.8888L15.9474 29.8554L15.9153 29.6075ZM21.9315 16.6756L22.0293 16.9057L22.185 16.8396L22.1815 16.6704L21.9315 16.6756ZM32.0674 16.677L31.8175 16.6717L31.8139 16.8408L31.9695 16.907L32.0674 16.677ZM39.8641 30.1904L39.616 30.1599L39.5953 30.3282L39.7441 30.4096L39.8641 30.1904ZM39.9663 30.2478L39.8413 30.4643L39.8413 30.4644L39.9663 30.2478ZM41.8219 37.1723L42.0384 37.2974L42.0384 37.2973L41.8219 37.1723ZM34.8974 39.0273L35.0224 38.8108L35.0224 38.8108L34.8974 39.0273ZM34.7961 38.9673L34.926 38.7536L34.7807 38.6653L34.6451 38.768L34.7961 38.9673ZM19.2029 38.9679L19.3536 38.7684L19.2181 38.6661L19.073 38.7542L19.2029 38.9679ZM19.1026 39.0273L19.2275 39.2438L19.2276 39.2438L19.1026 39.0273ZM12.1781 37.172L12.3946 37.047L12.3946 37.047L12.1781 37.172ZM14.0337 30.2475L14.1587 30.464L14.1588 30.4639L14.0337 30.2475ZM14.1324 30.1918L14.2528 30.4109L14.4012 30.3294L14.3806 30.1613L14.1324 30.1918ZM14.0357 28.6142L13.7857 28.6142L13.7857 28.6143L14.0357 28.6142ZM16.5626 31.4018L16.5628 31.1518H16.5626V31.4018ZM14.9507 31.8365L15.0757 32.053L15.0757 32.053L14.9507 31.8365ZM17.4047 31.5133L17.3398 31.7547L17.3401 31.7548L17.4047 31.5133ZM19.3692 33.0201L19.5857 32.8951L19.5857 32.895L19.3692 33.0201ZM18.1849 37.4386L18.3099 37.6551L18.3099 37.6551L18.1849 37.4386ZM15.7309 37.7618L15.7956 37.5203L15.7955 37.5203L15.7309 37.7618ZM13.7664 36.255L13.5499 36.38L13.55 36.3801L13.7664 36.255ZM37.4367 31.4018L37.4367 31.1518L37.4366 31.1518L37.4367 31.4018ZM36.5946 31.5136L36.6592 31.7551L36.6597 31.755L36.5946 31.5136ZM39.0487 31.8368L38.9235 32.0533L38.9237 32.0533L39.0487 31.8368ZM40.2329 36.2554L40.4493 36.3805L40.4494 36.3804L40.2329 36.2554ZM38.2685 37.7621L38.2039 37.5206L38.2037 37.5207L38.2685 37.7621ZM35.8144 37.4389L35.6894 37.6555L35.6895 37.6555L35.8144 37.4389ZM34.6301 33.0204L34.4137 32.8953L34.4136 32.8954L34.6301 33.0204ZM26.9993 21.3881C24.9968 21.3881 23.2747 20.1598 22.5483 18.4157L22.0867 18.6079C22.8878 20.5313 24.7873 21.8881 26.9993 21.8881V21.3881ZM31.4502 18.4168C30.7235 20.1604 29.0015 21.3881 26.9993 21.3881V21.8881C29.2109 21.8881 31.1103 20.5321 31.9118 18.6092L31.4502 18.4168ZM38.376 28.6142C38.376 24.1677 35.7657 20.1358 31.7864 18.2863L31.5756 18.7397C35.3799 20.5079 37.876 24.3637 37.876 28.6142H38.376ZM38.3302 29.6325C38.3607 29.2938 38.376 28.9537 38.376 28.6142H37.876C37.876 28.9386 37.8614 29.2638 37.8322 29.5876L38.3302 29.6325ZM33.2583 32.2277C34.2576 30.4958 36.1782 29.6184 38.0494 29.858L38.1129 29.362C36.0494 29.0979 33.9291 30.0647 32.8253 31.9778L33.2583 32.2277ZM33.6018 37.5623C32.4592 36.0619 32.2585 33.96 33.2583 32.2278L32.8253 31.9778C31.721 33.8911 31.9439 36.2105 33.204 37.8653L33.6018 37.5623ZM27.0013 39.9952C29.3571 39.9952 31.6465 39.2636 33.5474 37.9179L33.2585 37.5098C31.4422 38.7957 29.2537 39.4952 27.0013 39.4952V39.9952ZM20.4527 37.9183C22.3583 39.2636 24.6484 39.9952 27.0013 39.9952V39.4952C24.7519 39.4952 22.5625 38.7957 20.741 37.5098L20.4527 37.9183ZM20.7417 32.2278C21.7415 33.9598 21.5408 36.062 20.398 37.5626L20.7957 37.8655C22.0561 36.2107 22.2791 33.8909 21.1747 31.9778L20.7417 32.2278ZM17.8153 29.9821C19.0593 30.3154 20.0975 31.1125 20.7417 32.2278L21.1747 31.9777C20.4642 30.7478 19.3169 29.8668 17.9447 29.4991L17.8153 29.9821ZM15.9474 29.8554C16.5632 29.7756 17.1956 29.8166 17.8155 29.9821L17.9445 29.499C17.2622 29.3168 16.5642 29.2713 15.8832 29.3595L15.9474 29.8554ZM15.6207 28.6142C15.6207 28.9528 15.6359 29.2921 15.6663 29.6299L16.1643 29.5851C16.1352 29.2621 16.1207 28.9378 16.1207 28.6142H15.6207ZM22.2122 18.285C18.2315 20.1325 15.6207 24.1649 15.6207 28.6142H16.1207C16.1207 24.3609 18.6174 20.5046 22.4227 18.7385L22.2122 18.285ZM22.1815 16.6704C22.1808 16.6367 22.1804 16.6028 22.1804 16.5689H21.6804C21.6804 16.6063 21.6808 16.6436 21.6816 16.6808L22.1815 16.6704ZM22.1804 16.5689C22.1804 13.9121 24.3425 11.75 26.9993 11.75V11.25C24.0664 11.25 21.6804 13.6359 21.6804 16.5689H22.1804ZM26.9993 11.75C29.6562 11.75 31.8186 13.9118 31.8186 16.5689H32.3186C32.3186 13.6356 29.9323 11.25 26.9993 11.25V11.75ZM31.8186 16.5689C31.8186 16.6033 31.8182 16.6375 31.8175 16.6717L32.3174 16.6822C32.3182 16.6445 32.3186 16.6068 32.3186 16.5689H31.8186ZM31.9695 16.907C36.6276 18.8894 39.7107 23.5083 39.7107 28.6146H40.2107C40.2107 23.3068 37.0069 18.5075 32.1653 16.447L31.9695 16.907ZM39.7107 28.6146C39.7107 29.1301 39.6789 29.6474 39.616 30.1599L40.1123 30.2208C40.1776 29.6882 40.2107 29.1505 40.2107 28.6146H39.7107ZM39.7441 30.4096C39.7766 30.4274 39.809 30.4457 39.8413 30.4643L40.0914 30.0313C40.0558 30.0108 40.0201 29.9907 39.9842 29.9711L39.7441 30.4096ZM39.8413 30.4644C42.1422 31.7923 42.934 34.7455 41.6054 37.0474L42.0384 37.2973C43.5051 34.7563 42.6313 31.4973 40.0913 30.0313L39.8413 30.4644ZM41.6054 37.0473C40.7141 38.5909 39.0911 39.4556 37.4237 39.4556V39.9556C39.2618 39.9556 41.0539 39.0024 42.0384 37.2974L41.6054 37.0473ZM37.4237 39.4556C36.6069 39.4556 35.7795 39.2479 35.0224 38.8108L34.7724 39.2438C35.6077 39.726 36.5217 39.9556 37.4237 39.9556V39.4556ZM35.0224 38.8108C34.9899 38.792 34.9578 38.773 34.926 38.7536L34.6662 39.1809C34.7013 39.2022 34.7367 39.2232 34.7724 39.2438L35.0224 38.8108ZM34.6451 38.768C32.4583 40.4246 29.7709 41.3299 27.0013 41.3299V41.8299C29.8797 41.8299 32.6731 40.8892 34.9471 39.1665L34.6451 38.768ZM27.0013 41.3299C24.2351 41.3299 21.5461 40.4246 19.3536 38.7684L19.0522 39.1674C21.3314 40.8891 24.1262 41.8299 27.0013 41.8299V41.3299ZM19.073 38.7542C19.0415 38.7734 19.0097 38.7922 18.9776 38.8108L19.2276 39.2438C19.2629 39.2234 19.298 39.2026 19.3327 39.1815L19.073 38.7542ZM18.9776 38.8108C18.2202 39.2479 17.3927 39.4556 16.576 39.4556V39.9556C17.478 39.9556 18.392 39.726 19.2275 39.2438L18.9776 38.8108ZM16.576 39.4556C14.9085 39.4556 13.2856 38.5909 12.3946 37.047L11.9615 37.297C12.9458 39.0023 14.7378 39.9556 16.576 39.9556V39.4556ZM12.3946 37.047C11.066 34.7455 11.8578 31.7919 14.1587 30.464L13.9087 30.031C11.3687 31.497 10.4949 34.7563 11.9616 37.297L12.3946 37.047ZM14.1588 30.4639C14.19 30.4459 14.2214 30.4282 14.2528 30.4109L14.012 29.9727C13.9774 29.9918 13.9429 30.0112 13.9085 30.0311L14.1588 30.4639ZM14.3806 30.1613C14.3175 29.6482 14.2858 29.1316 14.2857 28.6142L13.7857 28.6143C13.7858 29.152 13.8188 29.689 13.8843 30.2223L14.3806 30.1613ZM14.2857 28.6142C14.2857 23.5042 17.3698 18.8849 22.0293 16.9057L21.8338 16.4455C16.9904 18.5028 13.7857 23.3028 13.7857 28.6142H14.2857ZM26.9993 13.0846C25.0779 13.0846 23.5154 14.6471 23.5154 16.5686H24.0154C24.0154 14.9233 25.354 13.5846 26.9993 13.5846V13.0846ZM30.4839 16.5686C30.4839 14.647 28.9207 13.0846 26.9993 13.0846V13.5846C28.6447 13.5846 29.9839 14.9233 29.9839 16.5686H30.4839ZM26.9993 20.0532C28.9208 20.0532 30.4839 18.49 30.4839 16.5686H29.9839C29.9839 18.2139 28.6446 19.5532 26.9993 19.5532V20.0532ZM23.5154 16.5686C23.5154 18.49 25.0778 20.0532 26.9993 20.0532V19.5532C25.3541 19.5532 24.0154 18.2139 24.0154 16.5686H23.5154ZM16.5626 31.1518C15.9577 31.1518 15.3621 31.3103 14.8257 31.62L15.0757 32.053C15.5365 31.7869 16.0459 31.6518 16.5626 31.6518V31.1518ZM17.4696 31.2719C17.1739 31.1924 16.869 31.152 16.5628 31.1518L16.5625 31.6518C16.825 31.652 17.0863 31.6866 17.3398 31.7547L17.4696 31.2719ZM19.5857 32.895C19.1201 32.0894 18.3679 31.5123 17.4694 31.2718L17.3401 31.7548C18.1104 31.961 18.7535 32.4543 19.1527 33.1452L19.5857 32.895ZM18.3099 37.6551C19.9739 36.6944 20.5464 34.5595 19.5857 32.8951L19.1527 33.1451C19.9753 34.5702 19.4848 36.3994 18.0599 37.2221L18.3099 37.6551ZM15.6661 38.0033C16.5633 38.2438 17.5036 38.1207 18.3099 37.6551L18.0599 37.2221C17.3685 37.6213 16.5647 37.7265 15.7956 37.5203L15.6661 38.0033ZM13.55 36.3801C14.0154 37.1856 14.767 37.7628 15.6663 38.0033L15.7955 37.5203C15.0245 37.3141 14.3821 36.8209 13.9829 36.1299L13.55 36.3801ZM14.8257 31.62C13.1617 32.5807 12.5892 34.7157 13.5499 36.38L13.9829 36.13C13.1603 34.7049 13.6508 32.8757 15.0757 32.053L14.8257 31.62ZM37.4366 31.1518C37.1302 31.1519 36.8252 31.1924 36.5294 31.2723L36.6597 31.755C36.9131 31.6866 37.1744 31.6519 37.4368 31.6518L37.4366 31.1518ZM39.1738 31.6204C38.6373 31.3102 38.041 31.1518 37.4367 31.1518V31.6518C37.9528 31.6518 38.4628 31.7869 38.9235 32.0533L39.1738 31.6204ZM40.4494 36.3804C41.4102 34.7163 40.8376 32.581 39.1737 31.6203L38.9237 32.0533C40.3485 32.876 40.839 34.7056 40.0164 36.1303L40.4494 36.3804ZM38.3331 38.0036C39.2321 37.7631 39.9836 37.186 40.4493 36.3805L40.0165 36.1302C39.6169 36.8212 38.9744 37.3145 38.2039 37.5206L38.3331 38.0036ZM35.6895 37.6555C36.4964 38.121 37.437 38.2441 38.3333 38.0036L38.2037 37.5207C37.4357 37.7268 36.6315 37.6217 35.9393 37.2224L35.6895 37.6555ZM34.4136 32.8954C33.4529 34.5594 34.0255 36.6948 35.6894 37.6555L35.9394 37.2224C34.5145 36.3998 34.024 34.5702 34.8466 33.1454L34.4136 32.8954ZM36.53 31.2721C35.631 31.5127 34.8795 32.0898 34.4137 32.8953L34.8466 33.1456C35.2462 32.4546 35.8886 31.9613 36.6592 31.7551L36.53 31.2721Z" fill="white"/>
<circle cx="27" cy="16.56" r="3" fill="#3491FA"/>
<circle cx="16.55" cy="34.6" r="3" fill="#3491FA"/>
<circle cx="37.4" cy="34.65" r="3" fill="#3491FA"/>
</svg>
