<svg xmlns="http://www.w3.org/2000/svg" width="16" height="16" viewBox="0 0 16 16" fill="none">
  <path fill-rule="evenodd" clip-rule="evenodd" d="M14.5 3C14.7761 3 15 3.22386 15 3.5C15 3.77614 14.7761 4 14.5 4H12.999L13 13C13 14.1046 12.1046 15 11 15H5C3.89543 15 3 14.1046 3 13L2.999 4H1.5C1.22386 4 1 3.77614 1 3.5C1 3.22386 1.22386 3 1.5 3H14.5ZM11.999 4H3.999L4 13C4 13.5523 4.44772 14 5 14H11C11.5523 14 12 13.5523 12 13L11.999 4ZM6.5 6C6.77614 6 7 6.22386 7 6.5V11.5C7 11.7761 6.77614 12 6.5 12C6.22386 12 6 11.7761 6 11.5V6.5C6 6.22386 6.22386 6 6.5 6ZM9.5 6C9.77614 6 10 6.22386 10 6.5V11.5C10 11.7761 9.77614 12 9.5 12C9.22386 12 9 11.7761 9 11.5V6.5C9 6.22386 9.22386 6 9.5 6ZM5.5 1H10.5C10.7761 1 11 1.22386 11 1.5C11 1.77614 10.7761 2 10.5 2H5.5C5.22386 2 5 1.77614 5 1.5C5 1.22386 5.22386 1 5.5 1Z" fill="#B5B8BB"/>
</svg>