<svg xmlns="http://www.w3.org/2000/svg" width="12" height="12" viewBox="0 0 12 12" fill="none">
  <path d="M10.8542 3.26743L9.67867 4.44297L7.5571 2.3214L8.73364 1.14536C8.82676 1.05199 8.95328 0.999619 9.08515 0.999853C9.16165 0.999853 9.30966 1.01885 9.43616 1.14536L10.8542 2.56341C11.0482 2.75798 11.0482 3.07286 10.8542 3.26743ZM3.40846 10.7132L1.05688 10.9432L1.28739 8.59161L6.85008 3.02892L8.97165 5.14999L3.40846 10.7132ZM11.5612 1.85588L10.1437 0.438334C9.86326 0.157111 9.4823 -0.000711257 9.08515 -0.000181777C8.70164 -0.000181777 8.31863 0.145824 8.02612 0.438334L0.45286 8.01159C0.369857 8.09459 0.318855 8.2046 0.308854 8.3221L0.00184431 11.4607C-0.0231565 11.7537 0.209351 12.0002 0.496861 12.0002C0.510861 12.0002 0.525362 11.9997 0.539362 11.9987L3.67797 11.6912C3.79533 11.6818 3.90546 11.6307 3.98848 11.5472L11.5612 3.97445C12.1463 3.38943 12.1463 2.4409 11.5612 1.85588Z" fill="#B5B8BB"/>
</svg>