<svg xmlns="http://www.w3.org/2000/svg" width="166" height="72" viewBox="0 0 166 72" fill="none">
  <path d="M45.9312 59.5098C45.9312 53.0399 125.599 53.0399 125.599 59.8559C125.599 68.8196 45.9312 66.7514 45.9312 59.5098Z" fill="url(#paint0_linear_1_8009)"/>
  <path opacity="0.7" fill-rule="evenodd" clip-rule="evenodd" d="M29.1001 53.249C28.0089 53.249 26.9625 53.6756 26.1909 54.4348C25.4193 55.1941 24.9858 56.2238 24.9858 57.2975C24.9858 58.3713 25.4193 59.401 26.1909 60.1603C26.9625 60.9195 28.0089 61.3461 29.1001 61.3461C30.1913 61.3461 31.2378 60.9195 32.0094 60.1603C32.7809 59.401 33.2144 58.3713 33.2144 57.2975C33.2144 56.2238 32.7809 55.1941 32.0094 54.4348C31.2378 53.6756 30.1913 53.249 29.1001 53.249Z" fill="url(#paint1_linear_1_8009)"/>
  <path opacity="0.7" fill-rule="evenodd" clip-rule="evenodd" d="M139.812 35.5828C138.622 35.5828 137.48 36.0481 136.638 36.8763C135.797 37.7046 135.324 38.828 135.324 39.9993C135.324 41.1707 135.797 42.294 136.638 43.1223C137.48 43.9506 138.622 44.4159 139.812 44.4159C141.002 44.4159 142.144 43.9506 142.986 43.1223C143.827 42.294 144.3 41.1707 144.3 39.9993C144.3 38.828 143.827 37.7046 142.986 36.8763C142.144 36.0481 141.002 35.5828 139.812 35.5828Z" fill="url(#paint2_linear_1_8009)"/>
  <path opacity="0.7" fill-rule="evenodd" clip-rule="evenodd" d="M111.012 66.4657C110.516 66.4657 110.04 66.6596 109.689 67.0047C109.339 67.3498 109.142 67.8179 109.142 68.306C109.142 68.794 109.339 69.2621 109.689 69.6072C110.04 69.9523 110.516 70.1462 111.012 70.1462C111.508 70.1462 111.983 69.9523 112.334 69.6072C112.685 69.2621 112.882 68.794 112.882 68.306C112.882 67.8179 112.685 67.3498 112.334 67.0047C111.983 66.6596 111.508 66.4657 111.012 66.4657Z" fill="url(#paint3_linear_1_8009)"/>
  <path fill-rule="evenodd" clip-rule="evenodd" d="M12.8954 12.2182L45.4463 11.62C46.8531 8.13206 45.7338 6.38807 42.0883 6.38807C41.3782 6.38807 40.3288 3.8063 36.2235 3.8063C35.1948 3.8063 33.4737 4.60706 31.2106 5.47024C28.6482 6.44761 27.693 1.24263 23.0608 1.92648C20.358 2.08971 18.0087 3.57691 16.0129 6.38807C14.6331 6.288 13.5939 6.89111 12.8954 8.19738C12.197 9.50366 12.197 10.8439 12.8954 12.2182Z" fill="#F7F9FA"/>
  <path fill-rule="evenodd" clip-rule="evenodd" d="M136.629 10.3693L153.266 10.0702C153.985 8.32622 153.413 7.45423 151.55 7.45423C151.187 7.45423 150.651 6.16334 148.552 6.16334C148.027 6.16334 147.147 6.56372 145.99 6.99531C144.68 7.484 144.192 4.88151 141.825 5.22343C140.443 5.30505 139.243 6.04865 138.222 7.45423C137.517 7.40419 136.986 7.70575 136.629 8.35888C136.272 9.01202 136.272 9.68217 136.629 10.3693Z" fill="#F7F9FA"/>
  <path fill-rule="evenodd" clip-rule="evenodd" d="M35.6423 26.27L52.2794 25.9709C52.9984 24.2269 52.4263 23.3549 50.563 23.3549C50.2001 23.3549 49.6638 22.064 47.5655 22.064C47.0397 22.064 46.16 22.4644 45.0034 22.896C43.6937 23.3847 43.2055 20.7822 40.8379 21.1241C39.4565 21.2057 38.2557 21.9493 37.2356 23.3549C36.5304 23.3049 35.9993 23.6064 35.6423 24.2595C35.2853 24.9127 35.2853 25.5828 35.6423 26.27Z" fill="#F7F9FA"/>
  <path d="M110.263 26.3605H64.2583L69.0989 19.7891C69.5934 19.2744 70.4213 18.9648 71.3103 18.9648H103.212C104.101 18.9648 104.928 19.2744 105.423 19.7891L110.263 26.3605Z" fill="#EBEDF0"/>
  <path d="M107.702 60.5197H66.8197C65.414 60.5197 64.2583 59.3511 64.2583 57.9172V26.3604H110.263V57.9172C110.263 59.3454 109.113 60.5197 107.702 60.5197Z" fill="#F7F8F9"/>
  <path opacity="0.604725" d="M86.8748 35.5198H78.8727C78.1412 35.5198 77.5381 34.9194 77.5381 34.1787C77.5381 33.4437 78.1356 32.8377 78.8727 32.8377H86.8748C87.6063 32.8377 88.2094 33.4381 88.2094 34.1787C88.2094 34.9138 87.6119 35.5198 86.8748 35.5198ZM97.5461 43.5605H78.8727C78.1412 43.5605 77.5381 42.9601 77.5381 42.2194C77.5381 41.4844 78.1356 40.8784 78.8727 40.8784H97.5461C98.2776 40.8784 98.8807 41.4788 98.8807 42.2194C98.8807 42.9545 98.2776 43.5605 97.5461 43.5605ZM97.5461 51.6012H78.8727C78.1412 51.6012 77.5381 51.0008 77.5381 50.2601C77.5381 49.5251 78.1356 48.9191 78.8727 48.9191H97.5461C98.2776 48.9191 98.8807 49.5195 98.8807 50.2601C98.8807 50.9952 98.2776 51.6012 97.5461 51.6012Z" fill="white"/>
  <defs>
    <linearGradient id="paint0_linear_1_8009" x1="4029.31" y1="54.6998" x2="4029.31" y2="1258.1" gradientUnits="userSpaceOnUse">
      <stop stop-color="#EBEDF0"/>
      <stop offset="1" stop-color="#E4F2FF"/>
    </linearGradient>
    <linearGradient id="paint1_linear_1_8009" x1="436.414" y1="53.249" x2="436.414" y2="931.601" gradientUnits="userSpaceOnUse">
      <stop stop-color="#EBEDF0"/>
      <stop offset="1" stop-color="#E4F2FF"/>
    </linearGradient>
    <linearGradient id="paint2_linear_1_8009" x1="584.155" y1="35.5828" x2="584.155" y2="993.784" gradientUnits="userSpaceOnUse">
      <stop stop-color="#EBEDF0"/>
      <stop offset="1" stop-color="#E4F2FF"/>
    </linearGradient>
    <linearGradient id="paint3_linear_1_8009" x1="296.155" y1="66.4657" x2="296.155" y2="465.717" gradientUnits="userSpaceOnUse">
      <stop stop-color="#EBEDF0"/>
      <stop offset="1" stop-color="#E4F2FF"/>
    </linearGradient>
  </defs>
</svg>