<svg width="16" height="16" viewBox="0 0 16 16" fill="none" xmlns="http://www.w3.org/2000/svg">
<g id="menu-application">
<g id="Union">
<path d="M6.5 3C6.5 3.55231 6.05231 4 5.5 4C4.94769 4 4.5 3.55231 4.5 3C4.5 2.44769 4.94769 2 5.5 2C6.05231 2 6.5 2.44769 6.5 3Z" fill="#999EA4"/>
<path d="M6.5 8C6.5 8.55231 6.05231 9 5.5 9C4.94769 9 4.5 8.55231 4.5 8C4.5 7.44769 4.94769 7 5.5 7C6.05231 7 6.5 7.44769 6.5 8Z" fill="#999EA4"/>
<path d="M5.5 14C6.05231 14 6.5 13.5523 6.5 13C6.5 12.4477 6.05231 12 5.5 12C4.94769 12 4.5 12.4477 4.5 13C4.5 13.5523 4.94769 14 5.5 14Z" fill="#999EA4"/>
<path d="M11.5 3C11.5 3.55231 11.0523 4 10.5 4C9.94769 4 9.5 3.55231 9.5 3C9.5 2.44769 9.94769 2 10.5 2C11.0523 2 11.5 2.44769 11.5 3Z" fill="#999EA4"/>
<path d="M10.5 9C11.0523 9 11.5 8.55231 11.5 8C11.5 7.44769 11.0523 7 10.5 7C9.94769 7 9.5 7.44769 9.5 8C9.5 8.55231 9.94769 9 10.5 9Z" fill="#999EA4"/>
<path d="M11.5 13C11.5 13.5523 11.0523 14 10.5 14C9.94769 14 9.5 13.5523 9.5 13C9.5 12.4477 9.94769 12 10.5 12C11.0523 12 11.5 12.4477 11.5 13Z" fill="#999EA4"/>
</g>
</g>
</svg>
