<svg xmlns="http://www.w3.org/2000/svg" width="24" height="24" viewBox="0 0 24 24" fill="none">
  <g clip-path="url(#clip0_204_9685)">
    <path opacity="0.8" d="M9.24419 5.37209L14.1279 10.2558C15.2907 11.4186 15.2907 12.5814 14.1279 13.7442L9.24419 18.6279C8.0814 19.7907 6.9186 19.7907 5.75581 18.6279L0.872093 13.7442C-0.290698 12.5814 -0.290698 11.4186 0.872093 10.2558L5.75581 5.37209C6.9186 4.2093 8.0814 4.2093 9.24419 5.37209Z" fill="#0CBF9F"/>
    <path opacity="0.6" d="M18.2442 5.37209L23.1279 10.2558C24.2907 11.4186 24.2907 12.5814 23.1279 13.7442L18.2442 18.6279C17.0814 19.7907 15.9186 19.7907 14.7558 18.6279L9.87209 13.7442C8.7093 12.5814 8.7093 11.4186 9.87209 10.2558L14.7558 5.37209C15.9186 4.2093 17.0814 4.2093 18.2442 5.37209Z" fill="#0CBF9F"/>
    <path d="M12 8.12849L14.1279 10.2558C15.2907 11.4186 15.2907 12.5814 14.1279 13.7442L12 15.8715L9.87209 13.7442C8.7093 12.5814 8.7093 11.4186 9.87209 10.2558L12 8.12849Z" fill="#0CBF9F"/>
  </g>
  <defs>
    <clipPath id="clip0_204_9685">
      <rect width="24" height="24" fill="white"/>
    </clipPath>
  </defs>
</svg>