<svg xmlns="http://www.w3.org/2000/svg" width="16" height="16" viewBox="0 0 16 16" fill="none">
  <path fill-rule="evenodd" clip-rule="evenodd" d="M1.8999 2.7C1.8999 2.36863 2.16853 2.1 2.4999 2.1H10.4999C10.8313 2.1 11.0999 2.36863 11.0999 2.7V5.3C11.0999 5.63137 10.8313 5.9 10.4999 5.9H2.4999C2.16853 5.9 1.8999 5.63137 1.8999 5.3V2.7ZM3.0999 3.3V4.7H9.8999V3.3H3.0999Z" fill="#999EA4"/>
  <path fill-rule="evenodd" clip-rule="evenodd" d="M4.8999 10.7C4.8999 10.3686 5.16853 10.1 5.4999 10.1H13.4999C13.8313 10.1 14.0999 10.3686 14.0999 10.7V13.3C14.0999 13.6314 13.8313 13.9 13.4999 13.9H5.4999C5.16853 13.9 4.8999 13.6314 4.8999 13.3V10.7ZM6.0999 11.3V12.7H12.8999V11.3H6.0999Z" fill="#999EA4"/>
  <path fill-rule="evenodd" clip-rule="evenodd" d="M4.8999 8.2V5.7H6.0999V7.6H10.4999C10.8313 7.6 11.0999 7.86863 11.0999 8.2V10.7H9.8999V8.8H5.4999C5.16853 8.8 4.8999 8.53137 4.8999 8.2Z" fill="#999EA4"/>
</svg>